<?xml version="1.0" encoding="utf-8"?>
<svg version="1.1" id="Layer_1" xmlns="http://www.w3.org/2000/svg" xmlns:xlink="http://www.w3.org/1999/xlink" x="0px" y="0px"
	 viewBox="0 0 495.3 609.6" style="enable-background:new 0 0 495.3 609.6;" xml:space="preserve">
	<path fill="white" d="M495.3,171.5v323.8c0,31.6-11.2,58.5-33.5,80.8s-49.3,33.5-80.8,33.5H114.3c-31.6,0-58.5-11.2-80.8-33.5
		S0,526.8,0,495.3v-381c0-31.6,11.2-58.5,33.5-80.8S82.8,0,114.3,0h209.5L495.3,171.5z M457.2,190.5H304.8V38.1H114.3
		c-20.8,0-38.9,7.3-54.2,22c-14.7,15.3-22,33.3-22,54.2v381c0,20.8,7.3,38.9,22,54.2c15.3,14.7,33.3,22,54.2,22H381
		c20.8,0,38.9-7.3,54.2-22c14.7-15.3,22-33.3,22-54.2L457.2,190.5L457.2,190.5z M342.9,152.4h79.2l-79.2-79.2V152.4z"/>
	<path fill="white" d="M178.7,459.2c5.2-1.4,11-0.9,16,2c52.3,29.6,118.9,11.1,148.5-41.3c5.7-10.1,18.5-13.7,28.6-8
			c10.1,5.7,13.7,18.5,8,28.6c-41,72.5-133.3,98.2-205.7,57.2c-10.1-5.7-13.7-18.5-8-28.6C168.9,464.1,173.5,460.7,178.7,459.2z"/>
</svg>
